<?xml version="1.0" encoding="utf-8"?>
<!-- Generator: Adobe Illustrator 24.1.3, SVG Export Plug-In . SVG Version: 6.00 Build 0)  -->
<svg version="1.1" id="Layer_1" xmlns="http://www.w3.org/2000/svg" xmlns:xlink="http://www.w3.org/1999/xlink" x="0px" y="0px"
	 viewBox="0 0 297 297" style="enable-background:new 0 0 297 297;" xml:space="preserve">
<style type="text/css">
	.st0{fill:#FFFFFF;}
</style>
<g>
	<g>
		<g>
			<path class="st0" d="M147.7,71.8c-17.9,0-32.5,14.6-32.5,32.5s14.6,32.5,32.5,32.5s32.5-14.6,32.5-32.5S165.6,71.8,147.7,71.8z
				 M147.7,121.6c-9.5,0-17.2-7.7-17.2-17.2s7.7-17.2,17.2-17.2s17.2,7.7,17.2,17.2S157.2,121.6,147.7,121.6z"/>
			<path class="st0" d="M245.4,183.3c-9.3-14.3-20.5-20.8-26.3-23.4c3.1-20.1,4.2-40.1,1.1-57.2C209.1,40.5,155.3,3.2,153,1.7
				c-3.3-2.2-7.5-2.2-10.8,0c-2.3,1.6-56.1,38.9-67.2,101c-3.1,17.3-2,37.6,1.2,57.9c-6.1,3-16.2,9.6-24.7,22.7
				c-16,24.6-18.7,59.5-8,103.7c0.7,3.1,2.9,5.6,5.9,6.7c1.1,0.4,2.3,0.6,3.4,0.6c1.9,0,3.8-0.6,5.4-1.7l46.7-32.2
				c1.2,3.1,2.1,5,2.3,5.5c1.5,3.5,5,5.8,8.8,5.8h22v15.6c0,5.3,4.3,9.6,9.6,9.6s9.6-4.3,9.6-9.6v-15.6h22c3.8,0,7.3-2.3,8.8-5.8
				c0.2-0.6,1.2-2.8,2.6-6.5l48,33.1c1.6,1.1,3.5,1.7,5.4,1.7c1.2,0,2.3-0.2,3.4-0.6c2.9-1.1,5.1-3.6,5.9-6.7
				C264.1,242.8,261.4,207.9,245.4,183.3z M147.7,21.6c6.2,5,16.8,14.5,27.1,27.7h-54.2C130.8,36.1,141.5,26.6,147.7,21.6z
				 M59.3,268.8c-10.4-57.7,9.4-80.3,20.8-88.2C85.2,204,92.4,226.2,98,242L59.3,268.8z M172.8,252.7h-15.6v-75.9
				c0-5.3-4.3-9.6-9.6-9.6s-9.6,4.3-9.6,9.6v75.9h-15.6C113.9,231,85.4,153.6,93.9,106c2.8-15.6,8.8-29.5,16.1-41.4h75.4
				c7.2,11.9,13.3,25.8,16.1,41.4C209.9,153.5,181.4,231,172.8,252.7z M237.7,268.8l-40.1-27.7c5.7-16,12.7-38.1,17.8-61.5
				C226.5,186.6,248.6,208.5,237.7,268.8z"/>
		</g>
	</g>
</g>
</svg>
