<svg id="Layer_1" data-name="Layer 1" xmlns="http://www.w3.org/2000/svg" xmlns:xlink="http://www.w3.org/1999/xlink" viewBox="0 0 762.28 104.47"><defs><style>.cls-1{fill:#fff;}.cls-2,.cls-3,.cls-4{fill:none;stroke-miterlimit:10;stroke-width:7px;}.cls-2{stroke:url(#linear-gradient);}.cls-3{stroke-dasharray:29.26 29.26;stroke:url(#linear-gradient-2);}.cls-4{stroke:url(#linear-gradient-3);}</style><linearGradient id="linear-gradient" x1="13.57" y1="90.08" x2="680.18" y2="90.08" gradientUnits="userSpaceOnUse"><stop offset="0" stop-color="#fff" stop-opacity="0"/><stop offset="1" stop-color="#fff"/></linearGradient><linearGradient id="linear-gradient-2" x1="13.57" y1="67.04" x2="680.18" y2="67.04" xlink:href="#linear-gradient"/><linearGradient id="linear-gradient-3" x1="13.57" y1="73.08" x2="680.18" y2="73.08" xlink:href="#linear-gradient"/></defs><path class="cls-1" d="M755.28,27.88a10.74,10.74,0,1,0-3.36,14.81A10.73,10.73,0,0,0,755.28,27.88Zm-13.89,8.75a5.68,5.68,0,1,1,7.84,1.78A5.69,5.69,0,0,1,741.39,36.63Z" transform="translate(-13.57 -9.82)"/><path class="cls-1" d="M741.26,74.54a20.6,20.6,0,0,0,2-11.41c6.15-2.66,11.93-5.89,16.17-9.74,15.4-14,16.43-35.46,16.47-36.37A3.13,3.13,0,0,0,774,14c-.84-.36-20.64-8.71-39.92-.87-5.37,2.19-10.85,6.07-16,10.53a20.92,20.92,0,0,0-10.65-2.86c-9.64-.12-19.85,5.27-30.35,16a3.16,3.16,0,0,0-.84,2.81,3.27,3.27,0,0,0,.42,1.06,3.09,3.09,0,0,0,1.42,1.2l17.12,7.27c-.65.89-1.05,1.46-1.15,1.61a3.13,3.13,0,0,0-.09,3.46l3.84,6.1L693.55,63a3.21,3.21,0,0,0-1.18,4.22,3.15,3.15,0,0,0,4.44,1.14l4.34-2.73,3.84,6.1a3.12,3.12,0,0,0,3.16,1.41c.2,0,1-.16,2.27-.4l-.87,19.11A3.11,3.11,0,0,0,711.77,95a3.19,3.19,0,0,0,2-.06C728,90.14,737.2,83.27,741.26,74.54Zm27.92-55.41a58.83,58.83,0,0,1-3,12.44l-9.54-15.14A58.57,58.57,0,0,1,769.18,19.13Zm-84.41,18.7c14.27-13.07,24.05-11.5,28.29-9.7A171,171,0,0,0,699,44Zm24.4,28.81-2.72-4.31,21.08-13.27a3.23,3.23,0,0,0,1.19-4.22,3.15,3.15,0,0,0-4.44-1.14L703.11,57l-2.71-4.31C705,46.52,721.59,25,736.33,19a40.23,40.23,0,0,1,14.36-2.83l13.15,20.89a40.23,40.23,0,0,1-8.76,11.72C743.32,59.49,716.73,65.19,709.17,66.64Zm7,21,.67-16.06a167.66,167.66,0,0,0,20.32-5.84C737.11,70.07,734.88,80.09,716.13,87.64Z" transform="translate(-13.57 -9.82)"/><path class="cls-2" d="M16.15,95.54c3.13-3.4,6.6-7,10.41-10.8" transform="translate(-13.57 -9.82)"/><path class="cls-3" d="M48.4,65.29C74.38,44.6,109.16,25.38,151,23.44c26.95-1.24,46.79,5.15,73.89,13.86,101.79,32.72,177.87,57.18,194,62,49.48,14.81,124,21.26,232.4-18.26" transform="translate(-13.57 -9.82)"/><path class="cls-4" d="M664.92,75.87q6.87-2.69,13.92-5.61" transform="translate(-13.57 -9.82)"/></svg>